<?xml version="1.0" encoding="utf-8"?>
<!-- Generator: Adobe Illustrator 21.0.2, SVG Export Plug-In . SVG Version: 6.00 Build 0)  -->
<svg version="1.1" id="Layer_1" xmlns="http://www.w3.org/2000/svg" xmlns:xlink="http://www.w3.org/1999/xlink" x="0px" y="0px"
	 viewBox="0 0 512 512" style="enable-background:new 0 0 512 512;" xml:space="preserve">
<style type="text/css">
	.st0{fill:#E71A28;}
	.st1{fill:#55443D;}
</style>
<g>
	<path class="st0" d="M291.9,399H112.6c-7.7,0-13.9-6.2-13.9-13.9V246.9c0-7.7,6.2-13.9,13.9-13.9h179.3c16.8,0,30.5,13.7,30.5,30.5
		v105C322.4,385.3,308.7,399,291.9,399z M126.5,371.1h165.3c1.5,0,2.6-1.2,2.6-2.6v-105c0-1.5-1.2-2.6-2.6-2.6H126.5V371.1z"/>
	<path class="st0" d="M210.5,361c-7.7,0-13.9-6.2-13.9-13.9V285c0-7.7,6.2-13.9,13.9-13.9s13.9,6.2,13.9,13.9v62
		C224.4,354.7,218.2,361,210.5,361z"/>
	<path class="st0" d="M241.6,329.9h-62.1c-7.7,0-13.9-6.2-13.9-13.9c0-7.7,6.2-13.9,13.9-13.9h62.1c7.7,0,13.9,6.2,13.9,13.9
		C255.5,323.7,249.3,329.9,241.6,329.9z"/>
	<path class="st1" d="M392.5,467.7H119.8c-10.6,0-21.9-8-21.9-22.8V247.6c0-7.7,6.2-13.9,13.9-13.9s13.9,6.2,13.9,13.9v192.3h260.6
		V248.2c0-7.7,6.2-13.9,13.9-13.9s13.9,6.2,13.9,13.9v195.1C414.1,459.1,403,467.7,392.5,467.7z"/>
	<path class="st1" d="M452.7,250c-3.3,0-6.6-1.2-9.2-3.5c-5.8-5.1-6.3-13.9-1.2-19.7l41.8-47.1l0.1-0.1c0.1-0.1,0.1-0.6,0-0.7
		c-1.2-1.2-1.6-1.5-2.2-2.9c-1.7-2.5-13.6-19-76.1-93.9c-2.1-1.1-14.3-6.4-62.7-9.9c-3.6-0.2-7,1.3-9.1,4.2l-53.6,73.1
		c-5.8,7.9-14.7,12.4-24.4,12.4l0,0c-9.7,0-18.6-4.5-24.4-12.4l-53.6-73c-2.1-2.9-5.5-4.5-9.1-4.2c-48.4,3.5-60.6,8.7-62.7,9.9
		c-62.5,75-74.4,91.4-76.1,93.9c-0.6,1.4-1.1,1.7-2.2,2.9c-0.1,0.1-0.1,0.6,0,0.7l0.1,0.1l41.5,46.8c5.1,5.8,4.6,14.6-1.2,19.6
		c-5.8,5.1-14.6,4.6-19.7-1.2L7.2,198.2C-2.4,187.6-2.3,171,7,160.4c6.8-10,35.5-45.5,78.4-97c4.1-4.9,11.7-14,81.4-19.1
		c13.2-1,25.7,4.8,33.6,15.5l53.6,73c0.6,0.8,1.4,1,2,1l0,0c0.6,0,1.4-0.2,2-1l53.6-73.1c7.8-10.7,20.4-16.5,33.6-15.5
		c69.8,5,77.4,14.2,81.4,19.1c43,51.5,71.6,87,78.4,97c9.3,10.6,9.4,27.2-0.2,37.8l-41.7,47.1C460.4,248.4,456.5,250,452.7,250z"/>
</g>
</svg>
