<?xml version="1.0" encoding="utf-8"?>
<!-- Generator: Adobe Illustrator 21.0.2, SVG Export Plug-In . SVG Version: 6.00 Build 0)  -->
<svg version="1.1" id="Layer_1" xmlns="http://www.w3.org/2000/svg" xmlns:xlink="http://www.w3.org/1999/xlink" x="0px" y="0px"
	 viewBox="0 0 512 512" style="enable-background:new 0 0 512 512;" xml:space="preserve">
<style type="text/css">
	.st0{fill:#55443D;}
	.st1{fill:#E71A28;}
</style>
<g>
	<path class="st0" d="M133.6,257.3c-61.3,0-111.1-49.9-111.1-111.1v-111C22.4,15.8,38.2,0,57.6,0H90c8.1,0,14.7,6.6,14.7,14.7
		S98.1,29.3,90,29.3H57.6c-3.2,0-5.8,2.6-5.8,5.8v111c0,45.1,36.7,81.8,81.8,81.8s81.8-36.7,81.8-81.8v-111c0-3.2-2.6-5.8-5.8-5.8
		h-32.4c-8.1,0-14.7-6.6-14.7-14.7S169.1,0,177.2,0h32.4c19.4,0,35.2,15.8,35.2,35.2v111C244.7,207.5,194.8,257.3,133.6,257.3z"/>
	<path class="st0" d="M259.2,512c-77.4,0-140.3-62.9-140.3-140.3V282c0-8.1,6.6-14.7,14.7-14.7s14.7,6.6,14.7,14.7v89.7
		c0,61.2,49.8,111,111,111s111-49.8,111-111v-15c0-8.1,6.6-14.7,14.7-14.7s14.7,6.6,14.7,14.7v15C399.5,449.1,336.6,512,259.2,512z"
		/>
</g>
<g>
	<path class="st1" d="M384.9,305.6c-57.7,0-104.7-47-104.7-104.7s47-104.7,104.7-104.7s104.7,47,104.7,104.7
		C489.6,258.7,442.6,305.6,384.9,305.6z M384.9,125.6c-41.6,0-75.4,33.8-75.4,75.4s33.8,75.4,75.4,75.4s75.4-33.8,75.4-75.4
		S426.4,125.6,384.9,125.6z"/>
	<circle class="st1" cx="384.9" cy="200.9" r="16.4"/>
	<path class="st1" d="M384.9,232c-17.1,0-31.1-13.9-31.1-31.1s13.9-31.1,31.1-31.1s31.1,13.9,31.1,31.1S402,232,384.9,232z
		 M384.9,199.2c-1,0-1.8,0.8-1.8,1.8s0.8,1.7,1.8,1.7s1.7-0.8,1.7-1.7C386.6,200,385.8,199.2,384.9,199.2z"/>
</g>
</svg>
