<?xml version="1.0" encoding="utf-8"?>
<!-- Generator: Adobe Illustrator 21.0.0, SVG Export Plug-In . SVG Version: 6.00 Build 0)  -->
<svg version="1.1" id="Layer_1" xmlns="http://www.w3.org/2000/svg" xmlns:xlink="http://www.w3.org/1999/xlink" x="0px" y="0px"
	 viewBox="0 0 512 512" style="enable-background:new 0 0 512 512;" xml:space="preserve">
<style type="text/css">
	.st0{fill:#55443D;}
	.st1{fill:#CC3636;}
</style>
<g>
	<path class="st0" d="M297.6,414c-6.4,0-12.1-4.4-13.6-10.8l-17-69.1c-1.7-7.5,3-15,10.5-16.8c7.5-1.7,15,3,16.8,10.5l17,69.1
		c1.7,7.5-3,15-10.5,16.8C299.7,413.9,298.7,414,297.6,414z"/>
	<path class="st1" d="M80.4,392.3c-4,0-8-1.7-10.7-5c-5-5.9-4.2-14.8,1.7-19.7l29.3-24.5c5.9-5,14.8-4.2,19.7,1.7
		c5,5.9,4.2,14.8-1.7,19.7L89.4,389C86.8,391.2,83.6,392.3,80.4,392.3z"/>
	<path class="st0" d="M147.3,334c-3.9,0-7.8-1.6-10.6-4.8c-5.1-5.8-4.5-14.7,1.4-19.7l32.1-26.5c5.8-5.1,14.7-4.5,19.7,1.4
		c5.1,5.8,4.5,14.7-1.4,19.7l-32.1,26.5C153.8,332.9,150.6,334,147.3,334z"/>
	<path class="st0" d="M318.6,185.1c-3.9,0-7.8-1.6-10.6-4.8c-5.1-5.8-4.5-14.7,1.4-19.7l51.6-45.2c5.8-5.1,14.7-4.5,19.7,1.4
		c5.1,5.8,4.5,14.7-1.4,19.7l-51.6,45.2C325.1,184,321.8,185.1,318.6,185.1z"/>
	<path class="st0" d="M191.5,187.4c-3.9,0-7.8-1.6-10.5-4.8L120.7,114c-5.1-5.8-4.5-14.7,1.3-19.7c5.8-5.1,14.7-4.5,19.8,1.3
		l60.3,68.7c5.1,5.8,4.5,14.7-1.3,19.7C198.1,186.3,194.8,187.4,191.5,187.4z"/>
	<path class="st1" d="M427.5,255.1h-30.2c-7.7,0-14-6.3-14-14s6.3-14,14-14h30.2c7.7,0,14,6.3,14,14
		C441.5,248.8,435.2,255.1,427.5,255.1z"/>
</g>
<path class="st0" d="M255.5,346.7c-58.2,0-105.6-47.4-105.6-105.6s47.4-105.6,105.6-105.6S361,182.9,361,241.1
	S313.7,346.7,255.5,346.7z M255.5,163.5c-42.8,0-77.6,34.8-77.6,77.6s34.8,77.6,77.6,77.6s77.6-34.8,77.6-77.6
	S298.2,163.5,255.5,163.5z"/>
<g>
	<path class="st0" d="M103.7,118.6c-28.7,0-52-23.3-52-52s23.3-52,52-52s52,23.3,52,52S132.4,118.6,103.7,118.6z M103.7,42.5
		c-13.3,0-24,10.8-24,24s10.8,24,24,24c13.3,0,24.1-10.8,24.1-24S116.9,42.5,103.7,42.5z"/>
	<path class="st0" d="M306.9,497.5c-30.6,0-55.5-24.9-55.5-55.5s24.9-55.5,55.5-55.5s55.5,24.9,55.5,55.5S337.5,497.5,306.9,497.5z
		 M306.9,414.4c-15.2,0-27.5,12.4-27.5,27.5s12.4,27.5,27.5,27.5s27.5-12.4,27.5-27.5S322.1,414.4,306.9,414.4z"/>
	<path class="st0" d="M391.1,147.4c-23.1,0-41.9-18.8-41.9-41.9s18.8-41.9,41.9-41.9s41.9,18.8,41.9,41.9S414.3,147.4,391.1,147.4z
		 M391.1,91.5c-7.7,0-14,6.3-14,14s6.3,14,14,14s14-6.3,14-14S398.8,91.5,391.1,91.5z"/>
</g>
<path class="st1" d="M463.4,289.7c-26.8,0-48.6-21.8-48.6-48.6c0-26.8,21.8-48.6,48.6-48.6s48.6,21.8,48.6,48.6
	C512,267.9,490.2,289.7,463.4,289.7z M463.4,220.4c-11.4,0-20.7,9.3-20.7,20.7c0,11.4,9.3,20.7,20.7,20.7s20.7-9.3,20.7-20.7
	S474.7,220.4,463.4,220.4z"/>
<path class="st1" d="M52,457.2c-28.7,0-52-23.3-52-52s23.3-52,52-52s52,23.3,52,52C104.1,433.9,80.7,457.2,52,457.2z M52,381.1
	c-13.3,0-24,10.8-24,24s10.8,24,24,24s24-10.8,24-24C76.1,391.9,65.3,381.1,52,381.1z"/>
</svg>
