<?xml version="1.0" encoding="utf-8"?>
<!-- Generator: Adobe Illustrator 21.0.0, SVG Export Plug-In . SVG Version: 6.00 Build 0)  -->
<svg version="1.1" id="Layer_1" xmlns="http://www.w3.org/2000/svg" xmlns:xlink="http://www.w3.org/1999/xlink" x="0px" y="0px"
	 viewBox="0 0 512 512" style="enable-background:new 0 0 512 512;" xml:space="preserve">
<style type="text/css">
	.st0{fill:#55443D;}
	.st1{fill:#E71A28;}
</style>
<path class="st0" d="M353.3,379.4H159.1c-7.6,0-13.7-6.1-13.7-13.7c0-1.9-0.4-186.3-0.4-217.4c0.1-61.9,63.7-121.2,83.2-137.9
	c16.2-13.9,39.8-13.8,56,0.1c22.2,19.1,52.4,52.6,70.5,89.3c3.4,6.8,0.6,15-6.2,18.4c-6.8,3.4-15,0.6-18.4-6.2
	c-16.3-33-43.6-63.2-63.8-80.6c-5.8-5-14.3-5.1-20.2,0c-35.6,30.4-73.6,77.1-73.6,117c0,26,0.3,160,0.4,203.6h180.5
	c7.6,0,13.7,6.2,13.7,13.7S360.9,379.4,353.3,379.4z"/>
<path class="st0" d="M426.4,421.2c-2.3,0-4.7-0.6-6.8-1.8L347,378.2c-4.3-2.4-7-7-7-11.9V189.7c0-5.5,3.3-10.5,8.3-12.6
	c5-2.2,10.9-1.1,14.9,2.6l54.1,51.2c14.5,13.7,22.8,33,22.8,52.9v123.6c0,4.9-2.6,9.4-6.8,11.9C431.2,420.6,428.8,421.2,426.4,421.2
	z M367.6,358.2l45.1,25.6v-100c0-12.4-5.2-24.4-14.2-32.9l-30.9-29.3L367.6,358.2L367.6,358.2L367.6,358.2z"/>
<path class="st0" d="M85.6,421.2c-2.4,0-4.8-0.6-6.9-1.9c-4.2-2.5-6.8-7-6.8-11.9V283.9c0-19.9,8.3-39.2,22.8-52.9l54.1-51.2
	c4-3.8,9.8-4.8,14.9-2.6c5,2.2,8.3,7.1,8.3,12.6v176.5c0,4.9-2.7,9.5-7,11.9l-72.6,41.2C90.3,420.6,87.9,421.2,85.6,421.2z
	 M144.4,221.7l-30.9,29.3c-9,8.5-14.2,20.5-14.2,32.9v100l45.1-25.6L144.4,221.7L144.4,221.7z"/>
<path class="st0" d="M256,246.2c-33.4,0-60.6-27.2-60.6-60.6c0-33.4,27.2-60.6,60.6-60.6s60.6,27.2,60.6,60.6S289.4,246.2,256,246.2
	z M256,152.4c-18.3,0-33.1,14.9-33.1,33.1s14.9,33.1,33.1,33.1s33.1-14.9,33.1-33.1S274.3,152.4,256,152.4z"/>
<path class="st1" d="M256,512c-1.8,0-3.5-0.3-5.2-1c-2.4-1-59.8-25.2-59.8-84.5c0-2.4,0.1-4.9,0.4-7.3c0.8-7,6.7-12.2,13.7-12.2H307
	c7,0,12.9,5.3,13.7,12.2c0.3,2.5,0.4,5,0.4,7.3c0,60.6-57.6,83.6-60.1,84.6C259.4,511.7,257.7,512,256,512z M219,434.4
	c3.8,27.4,26.8,42.9,37.2,48.6c10.4-5.5,33.2-20.5,36.9-48.6H219z"/>
</svg>
