<?xml version="1.0" encoding="utf-8"?>
<!-- Generator: Adobe Illustrator 21.0.2, SVG Export Plug-In . SVG Version: 6.00 Build 0)  -->
<svg version="1.1" id="Layer_1" xmlns="http://www.w3.org/2000/svg" xmlns:xlink="http://www.w3.org/1999/xlink" x="0px" y="0px"
	 viewBox="0 0 512 512" style="enable-background:new 0 0 512 512;" xml:space="preserve">
<style type="text/css">
	.st0{fill:#55443D;}
	.st1{fill:#E71A28;}
</style>
<path class="st0" d="M127.9,512c-34.2,0-66.3-13.3-90.4-37.5C13.3,450.4,0,418.3,0,384.1s13.3-66.3,37.5-90.4L86,245.2
	c2.9-2.9,6.8-4.5,10.8-4.5c4.1,0,7.9,1.6,10.8,4.5l159.3,159.3c2.9,2.9,4.5,6.8,4.5,10.8s-1.6,7.9-4.5,10.8l-48.5,48.5
	C194.2,498.7,162.1,512,127.9,512z M96.7,277.6L59,315.3c-18.4,18.4-28.5,42.8-28.5,68.8c0,26,10.1,50.4,28.5,68.8
	s42.8,28.5,68.8,28.5s50.4-10.1,68.8-28.5l37.7-37.7L96.7,277.6z"/>
<g>
	<path class="st0" d="M415.3,271.3c-3.9,0-7.8-1.5-10.8-4.5L245.2,107.5c-6-6-6-15.6,0-21.6l48.5-48.5C317.8,13.3,349.9,0,384.1,0
		s66.3,13.3,90.4,37.5c49.9,49.9,49.9,131,0,180.9L426,266.9C423.1,269.8,419.2,271.3,415.3,271.3z M277.6,96.7l137.6,137.6
		l37.7-37.7c37.9-37.9,37.9-99.7,0-137.6c-18.4-18.4-42.8-28.5-68.8-28.5S333.7,40.6,315.3,59L277.6,96.7z"/>
	<path class="st0" d="M384.1,512c-34.2,0-66.3-13.3-90.4-37.5c-6-6-6-15.6,0-21.6s15.6-6,21.6,0c18.4,18.4,42.8,28.5,68.8,28.5
		c26,0,50.4-10.1,68.8-28.5s28.5-42.8,28.5-68.8s-10.1-50.4-28.5-68.8L196.7,59.1c-18.4-18.4-42.8-28.5-68.8-28.5
		S77.5,40.7,59.1,59.1s-28.5,42.8-28.5,68.8s10.1,50.4,28.5,68.8l207.7,207.7c6,6,6,15.6,0,21.6s-15.6,6-21.6,0L37.5,218.3
		C13.3,194.2,0,162.1,0,127.9s13.3-66.3,37.5-90.4C61.6,13.3,93.7,0,127.9,0l0,0c34.2,0,66.3,13.3,90.4,37.5l256.2,256.2
		c24.2,24.2,37.5,56.3,37.5,90.4s-13.3,66.3-37.5,90.4C450.4,498.7,418.3,512,384.1,512z"/>
</g>
<path class="st1" d="M215.2,263.9c-13,0-25.2-5.1-34.4-14.3c-19-19-19-49.9,0-68.9c9.2-9.2,21.4-14.3,34.4-14.3s25.2,5.1,34.4,14.3
	c9.2,9.2,14.3,21.4,14.3,34.4s-5.1,25.2-14.3,34.4C240.4,258.8,228.2,263.9,215.2,263.9z M215.2,197c-4.8,0-9.4,1.9-12.8,5.3
	c-7.1,7.1-7.1,18.6,0,25.6c3.4,3.4,8,5.3,12.8,5.3s9.4-1.9,12.8-5.3s5.3-8,5.3-12.8s-1.9-9.4-5.3-12.8
	C224.6,198.9,220,197,215.2,197z"/>
<path class="st1" d="M296.8,345.5c-13,0-25.2-5.1-34.4-14.3c-19-19-19-49.9,0-68.9c9.2-9.2,21.4-14.3,34.4-14.3s25.2,5.1,34.4,14.3
	c19,19,19,49.9,0,68.9C322.1,340.5,309.8,345.5,296.8,345.5z M296.8,278.7c-4.8,0-9.4,1.9-12.8,5.3c-7.1,7.1-7.1,18.6,0,25.6
	c3.4,3.4,8,5.3,12.8,5.3s9.4-1.9,12.8-5.3c7.1-7.1,7.1-18.6,0-25.6C306.2,280.6,301.7,278.7,296.8,278.7z"/>
</svg>
