<?xml version="1.0" encoding="utf-8"?>
<!-- Generator: Adobe Illustrator 21.0.0, SVG Export Plug-In . SVG Version: 6.00 Build 0)  -->
<svg version="1.1" id="Layer_1" xmlns="http://www.w3.org/2000/svg" xmlns:xlink="http://www.w3.org/1999/xlink" x="0px" y="0px"
	 viewBox="0 0 512 512" style="enable-background:new 0 0 512 512;" xml:space="preserve">
<style type="text/css">
	.st0{fill:#CC3636;}
	.st1{fill:#55443D;}
</style>
<g>
	<path class="st0" d="M288.5,323.5c-65.3,0-118.4-53.1-118.4-118.4S223.2,86.8,288.5,86.8s118.4,53.1,118.4,118.4
		S353.8,323.5,288.5,323.5z M288.5,113.4c-50.6,0-91.8,41.2-91.8,91.8s41.2,91.8,91.8,91.8s91.8-41.2,91.8-91.8
		S339.1,113.4,288.5,113.4z"/>
	<path class="st1" d="M413,434.1H37.7C16.9,434.1,0,417.2,0,396.4V217.3c0-20.8,16.9-37.7,37.7-37.7h36.8c7.3,0,13.3,6,13.3,13.3
		s-6,13.3-13.3,13.3H37.7c-6.1,0-11.1,5-11.1,11.1v179.1c0,6.1,5,11.1,11.1,11.1H413c6.1,0,11.1-5,11.1-11.1v-22.7
		c0-7.3,6-13.3,13.3-13.3s13.3,6,13.3,13.3v22.7C450.7,417.2,433.8,434.1,413,434.1z"/>
	<path class="st1" d="M474.3,332.5H99c-20.8,0-37.7-16.9-37.7-37.7V115.6c0-20.8,16.9-37.7,37.7-37.7h375.3
		c20.8,0,37.7,16.9,37.7,37.7v28c0,7.3-6,13.3-13.3,13.3s-13.3-6-13.3-13.3v-28c0-6.1-5-11.1-11.1-11.1H99c-6.1,0-11.1,5-11.1,11.1
		v179.1c0,6.1,5,11.1,11.1,11.1h375.3c6.1,0,11.1-5,11.1-11.1v-79.3c0-7.3,6-13.3,13.3-13.3s13.3,6,13.3,13.3v79.3
		C512,315.5,495.1,332.5,474.3,332.5z"/>
</g>
<g>
	<path class="st1" d="M229.4,428.6c-29.9,0-58.4-11.2-80.3-31.4c-21.8-20.1-35.1-47.5-37.6-76.9c-0.3-3.7,0.9-7.4,3.5-10.1
		s6.1-4.3,9.8-4.3h209.3c3.7,0,7.3,1.6,9.8,4.3s3.8,6.4,3.5,10.1c-2.5,29.5-15.8,56.8-37.6,76.9
		C287.8,417.4,259.3,428.6,229.4,428.6z M140.4,332.5c10,40,46.7,69.5,89,69.5s79-29.6,89-69.5H140.4L140.4,332.5z"/>
</g>
<path class="st0" d="M325.8,157.2L325.8,157.2c-3.3-1.4-7.1,0.2-8.5,3.5l-28.7,69.6l-29-69.5c-1.4-3.3-5.2-4.9-8.5-3.5
	c-3.3,1.4-4.9,5.2-3.5,8.5l35,84c0.4,1,1,1.8,1.8,2.4c0,0,0.1,0,0.1,0.1c0.1,0.1,0.2,0.2,0.3,0.3c0.1,0,0.1,0.1,0.2,0.1
	c0.1,0.1,0.2,0.1,0.3,0.2c0.1,0,0.2,0.1,0.2,0.1c0.2,0.1,0.3,0.2,0.5,0.2c0,0,0.1,0,0.1,0c0,0,0,0,0,0c0.2,0.1,0.4,0.2,0.6,0.2
	c0,0,0,0,0,0c1.4,0.4,2.9,0.4,4.3-0.2c1.4-0.6,2.5-1.6,3.2-2.9c0,0,0,0,0,0c0.1-0.2,0.2-0.4,0.3-0.6c0,0,0,0,0,0l34.7-84.1
	C330.7,162.4,329.1,158.5,325.8,157.2z"/>
</svg>
